<?xml version="1.0" standalone="no"?>
<!DOCTYPE svg PUBLIC "-//W3C//DTD SVG 20010904//EN"
 "http://www.w3.org/TR/2001/REC-SVG-20010904/DTD/svg10.dtd">
<svg version="1.0" xmlns="http://www.w3.org/2000/svg"
 width="175.000000pt" height="217.000000pt" viewBox="0 0 175.000000 217.000000"
 preserveAspectRatio="xMidYMid meet">

<g transform="translate(0.000000,217.000000) scale(0.100000,-0.100000)"
fill="#000000" stroke="none">
<path d="M1144 1990 c-12 -4 -25 -17 -29 -27 -4 -10 -11 -110 -16 -223 -10
-266 -9 -961 1 -897 10 55 20 73 21 36 0 -13 4 -37 7 -54 8 -39 8 -143 0 -175
-19 -76 -75 -160 -107 -160 -7 0 -30 -10 -50 -22 -53 -34 -160 -31 -233 6 -65
32 -92 56 -147 128 -58 77 -82 91 -150 89 -72 -2 -121 -18 -144 -48 -10 -13
-24 -29 -31 -36 -22 -22 -10 -105 20 -135 8 -7 12 -17 9 -22 -14 -22 69 -111
165 -178 25 -17 79 -40 120 -51 41 -11 102 -27 135 -36 47 -13 89 -16 195 -13
153 6 205 16 305 63 39 18 74 33 79 33 5 0 13 7 18 16 5 9 13 16 19 16 11 0
119 111 119 122 0 4 6 13 13 20 17 18 47 82 47 103 0 9 5 25 11 36 5 11 16 59
24 107 18 116 28 759 14 957 -18 263 -18 279 -9 290 14 17 5 48 -16 56 -26 10
-364 10 -390 -1z"/>
</g>
</svg>
